<svg width="20" height="20" viewBox="0 0 20 20" fill="none" xmlns="http://www.w3.org/2000/svg">
    <path
        d="M14.1667 11.6667V16.6667M11.6667 14.1667H16.6667M4.99999 8.33334H6.66666C7.58714 8.33334 8.33333 7.58715 8.33333 6.66668V5.00001C8.33333 4.07954 7.58714 3.33334 6.66666 3.33334H4.99999C4.07952 3.33334 3.33333 4.07954 3.33333 5.00001V6.66668C3.33333 7.58715 4.07952 8.33334 4.99999 8.33334ZM13.3333 8.33334H15C15.9205 8.33334 16.6667 7.58715 16.6667 6.66668V5.00001C16.6667 4.07954 15.9205 3.33334 15 3.33334H13.3333C12.4129 3.33334 11.6667 4.07954 11.6667 5.00001V6.66668C11.6667 7.58715 12.4129 8.33334 13.3333 8.33334ZM4.99999 16.6667H6.66666C7.58714 16.6667 8.33333 15.9205 8.33333 15V13.3333C8.33333 12.4129 7.58714 11.6667 6.66666 11.6667H4.99999C4.07952 11.6667 3.33333 12.4129 3.33333 13.3333V15C3.33333 15.9205 4.07952 16.6667 4.99999 16.6667Z"
        stroke="#4F46E5" stroke-width="1.5" stroke-linecap="round" stroke-linejoin="round" />
</svg>