<svg width="20" height="20" viewBox="0 0 20 20" fill="none" xmlns="http://www.w3.org/2000/svg">
    <path
        d="M10 14.1667V16.15C10 17.7083 9.375 18.3333 7.80834 18.3333H3.85C2.29167 18.3333 1.66667 17.7083 1.66667 16.15V12.1917C1.66667 10.625 2.29167 10 3.85 10H5.83334V11.975C5.83334 13.5417 6.45834 14.1667 8.01667 14.1667H10Z"
        stroke="#64748B" stroke-width="1.5" stroke-linecap="round" stroke-linejoin="round" />
    <path
        d="M14.1667 9.99998V11.975C14.1667 13.5416 13.5417 14.1666 11.975 14.1666H8.01666C6.45833 14.1666 5.83333 13.5416 5.83333 11.975V8.01665C5.83333 6.45831 6.45833 5.83331 8.01666 5.83331H9.99999V7.80831C9.99999 9.37498 10.625 9.99998 12.1833 9.99998H14.1667Z"
        stroke="#64748B" stroke-width="1.5" stroke-linecap="round" stroke-linejoin="round" />
    <path
        d="M18.3333 3.85002V7.80835C18.3333 9.37502 17.7083 10 16.1417 10H12.1833C10.625 10 10 9.37502 10 7.80835V3.85002C10 2.29169 10.625 1.66669 12.1833 1.66669H16.1417C17.7083 1.66669 18.3333 2.29169 18.3333 3.85002Z"
        stroke="#64748B" stroke-width="1.5" stroke-linecap="round" stroke-linejoin="round" />
</svg>