<svg width="20" height="20" viewBox="0 0 20 20" fill="none" xmlns="http://www.w3.org/2000/svg">
    <path
        d="M15 5.96666C14.95 5.95833 14.8917 5.95833 14.8417 5.96666C13.6917 5.92499 12.775 4.98332 12.775 3.81666C12.775 2.62499 13.7333 1.66666 14.925 1.66666C16.1167 1.66666 17.075 2.63332 17.075 3.81666C17.0667 4.98332 16.15 5.92499 15 5.96666Z"
        stroke="#64748B" stroke-width="1.5" stroke-linecap="round" stroke-linejoin="round" />
    <path
        d="M14.1417 12.0333C15.2833 12.225 16.5417 12.025 17.425 11.4333C18.6 10.65 18.6 9.36667 17.425 8.58334C16.5333 7.99167 15.2583 7.79166 14.1167 7.99166"
        stroke="#64748B" stroke-width="1.5" stroke-linecap="round" stroke-linejoin="round" />
    <path
        d="M4.975 5.96666C5.025 5.95833 5.08333 5.95833 5.13333 5.96666C6.28333 5.92499 7.19999 4.98332 7.19999 3.81666C7.19999 2.62499 6.24166 1.66666 5.05 1.66666C3.85833 1.66666 2.89999 2.63332 2.89999 3.81666C2.90833 4.98332 3.825 5.92499 4.975 5.96666Z"
        stroke="#64748B" stroke-width="1.5" stroke-linecap="round" stroke-linejoin="round" />
    <path
        d="M5.83333 12.0333C4.69166 12.225 3.43333 12.025 2.55 11.4333C1.375 10.65 1.375 9.36667 2.55 8.58334C3.44166 7.99167 4.71666 7.79166 5.85833 7.99166"
        stroke="#64748B" stroke-width="1.5" stroke-linecap="round" stroke-linejoin="round" />
    <path
        d="M10 12.1917C9.95001 12.1833 9.89168 12.1833 9.84168 12.1917C8.69168 12.15 7.77501 11.2083 7.77501 10.0417C7.77501 8.85 8.73334 7.89166 9.92501 7.89166C11.1167 7.89166 12.075 8.85833 12.075 10.0417C12.0667 11.2083 11.15 12.1583 10 12.1917Z"
        stroke="#64748B" stroke-width="1.5" stroke-linecap="round" stroke-linejoin="round" />
    <path
        d="M7.57501 14.8167C6.40001 15.6 6.40001 16.8833 7.57501 17.6667C8.90834 18.5583 11.0917 18.5583 12.425 17.6667C13.6 16.8833 13.6 15.6 12.425 14.8167C11.1 13.9333 8.90834 13.9333 7.57501 14.8167Z"
        stroke="#64748B" stroke-width="1.5" stroke-linecap="round" stroke-linejoin="round" />
</svg>